HIERARCHY
ROOT root
{
	OFFSET 0.000000 0.000000 0.000000
	CHANNELS 6 Xposition Yposition Zposition Zrotation Yrotation Xrotation
	JOINT lhip
	{
		OFFSET 0.058581 -0.082280 -0.017664
		CHANNELS 3 Zrotation Yrotation Xrotation
		JOINT lknee
		{
			OFFSET 0.043451 -0.386469 0.008037
			CHANNELS 3 Zrotation Yrotation Xrotation
			JOINT lankle
			{
				OFFSET -0.014790 -0.426874 -0.037428
				CHANNELS 3 Zrotation Yrotation Xrotation
				JOINT ltoe
				{
					OFFSET 0.041054 -0.060286 0.122042
					CHANNELS 3 Zrotation Yrotation Xrotation
					End Site
					{
						OFFSET 0.000000 0.000000 0.000000
					}
				}
			}
		}
	}
	JOINT rhip
	{
		OFFSET -0.060310 -0.090513 -0.013543
		CHANNELS 3 Zrotation Yrotation Xrotation
		JOINT rknee
		{
			OFFSET -0.043257 -0.383688 -0.004843
			CHANNELS 3 Zrotation Yrotation Xrotation
			JOINT rankle
			{
				OFFSET 0.019056 -0.420046 -0.034562
				CHANNELS 3 Zrotation Yrotation Xrotation
				JOINT rtoe
				{
					OFFSET -0.034840 -0.062106 0.130323
					CHANNELS 3 Zrotation Yrotation Xrotation
					End Site
					{
						OFFSET 0.000000 0.000000 0.000000
					}
				}
			}
		}
	}
	JOINT lowerback
	{
		OFFSET 0.004439 0.124404 -0.038385
		CHANNELS 3 Zrotation Yrotation Xrotation
		JOINT upperback
		{
			OFFSET 0.004488 0.137956 0.026820
			CHANNELS 3 Zrotation Yrotation Xrotation
			JOINT chest
			{
				OFFSET -0.002265 0.056032 0.002855
				CHANNELS 3 Zrotation Yrotation Xrotation
				JOINT lowerneck
				{
					OFFSET -0.013390 0.211636 -0.033468
					CHANNELS 3 Zrotation Yrotation Xrotation
					JOINT upperneck
					{
						OFFSET 0.010113 0.088937 0.050410
						CHANNELS 3 Zrotation Yrotation Xrotation
						End Site
						{
							OFFSET 0.000000 0.000000 0.000000
						}
					}
				}
				JOINT lclavicle
				{
					OFFSET 0.071702 0.114000 -0.018898
					CHANNELS 3 Zrotation Yrotation Xrotation
					JOINT lshoulder
					{
						OFFSET 0.122921 0.045205 -0.019046
						CHANNELS 3 Zrotation Yrotation Xrotation
						JOINT lelbow
						{
							OFFSET 0.255332 -0.015649 -0.022946
							CHANNELS 3 Zrotation Yrotation Xrotation
							JOINT lwrist
							{
								OFFSET 0.265709 0.012698 -0.007375
								CHANNELS 3 Zrotation Yrotation Xrotation
								End Site
								{
									OFFSET 0.000000 0.000000 0.000000
								}
							}
						}
					}
				}
				JOINT rclavicle
				{
					OFFSET -0.082954 0.112472 -0.023707
					CHANNELS 3 Zrotation Yrotation Xrotation
					JOINT rshoulder
					{
						OFFSET -0.113228 0.046853 -0.008472
						CHANNELS 3 Zrotation Yrotation Xrotation
						JOINT relbow
						{
							OFFSET -0.260127 -0.014369 -0.031269
							CHANNELS 3 Zrotation Yrotation Xrotation
							JOINT rwrist
							{
								OFFSET -0.269108 0.006794 -0.006027
								CHANNELS 3 Zrotation Yrotation Xrotation
								End Site
								{
									OFFSET 0.000000 0.000000 0.000000
								}
							}
						}
					}
				}
			}
		}
	}
}
MOTION
Frames: 18
Frame Time: 0.033333
0.541150 0.232385 0.991643 87.849666 3.913065 94.926528 6.305819 4.241909 -2.709113 3.693900 -2.248134 -6.553301 -1.092330 10.970149 -3.217885 0.000000 -0.000000 0.000000 -1.052457 -1.947501 -6.930186 -1.098621 2.044147 1.549972 4.321791 -6.329114 -3.770183 0.000000 -0.000000 0.000000 -0.636618 1.171422 -0.974312 3.372188 -2.601322 1.425464 -0.007946 1.603697 -5.282326 0.882034 -9.435142 1.021247 6.832693 -11.518980 -12.822245 -21.816615 6.183172 -7.313358 -62.023002 -2.662894 22.807285 8.447776 -13.710030 7.418720 -10.365709 -8.147565 12.055685 23.922844 -1.045817 -4.377605 53.703918 2.200823 17.123104 -3.103403 13.172180 6.366677 7.057708 3.286837 6.584833 
0.541555 0.232018 0.991365 87.905999 3.982264 94.831352 6.423314 4.251707 -2.510730 3.673472 -2.277557 -6.712039 -1.160704 10.971209 -3.130172 0.000000 -0.000000 0.000000 -0.914387 -2.030687 -6.658629 -1.183202 2.173712 1.291401 4.465494 -6.438041 -3.736462 0.000000 -0.000000 0.000000 -0.430182 1.141874 -0.807671 3.302762 -2.642617 0.854586 -0.028816 1.621279 -5.016912 0.798664 -9.570968 1.384577 6.700147 -11.678234 -12.372026 -21.712436 5.900833 -6.991467 -62.023282 -2.528684 22.681533 8.679434 -13.515213 7.690695 -10.641118 -7.881748 11.922707 23.525901 -0.648654 -4.108371 54.125904 1.981293 17.077417 -3.311709 13.251076 6.419727 7.239043 3.199589 6.261955 
0.542099 0.231542 0.991173 87.994637 3.962474 94.908489 6.421289 4.215643 -2.526085 3.651046 -2.326310 -6.817803 -1.208707 11.011178 -3.057432 0.000000 -0.000000 0.000000 -0.865319 -2.010216 -6.574996 -1.276840 2.197225 1.073452 4.505522 -6.552204 -3.733421 0.000000 -0.000000 0.000000 -0.350712 1.076709 -1.049079 3.281190 -2.694115 0.706526 -0.109371 1.610604 -5.016757 0.623531 -9.571841 1.743043 6.525289 -11.533278 -11.361667 -21.685361 5.800872 -6.549333 -61.798136 -2.539105 22.602650 8.548896 -13.324194 7.621184 -10.322242 -8.038871 11.563496 23.177377 -0.310674 -3.816320 54.418920 1.935629 17.239415 -3.272996 13.036013 6.335703 7.026800 3.383088 5.730532 
0.543497 0.230601 0.990622 88.526492 3.930656 95.335208 6.466944 4.098677 -2.968991 3.542276 -2.647992 -6.911796 -1.351881 11.013921 -2.976627 0.000000 -0.000000 0.000000 -0.631212 -1.950565 -6.596183 -1.576932 2.103808 0.579925 4.427864 -7.009463 -3.761247 0.000000 -0.000000 0.000000 -0.263696 0.700237 -1.883680 3.298101 -2.932729 0.616851 -0.254284 1.540519 -5.094021 0.343393 -9.258754 2.242097 6.207997 -11.101489 -10.072961 -21.564655 5.790890 -6.152748 -61.743967 -2.571314 22.721978 8.680628 -13.201379 8.123280 -10.777069 -7.137609 11.223667 22.856799 -0.049368 -3.631688 54.571634 1.970739 17.495854 -3.015172 12.617705 6.674383 7.673495 3.282532 5.071466 
0.543764 0.230543 0.990376 88.571842 3.929485 95.345329 6.468675 4.100155 -2.949825 3.542270 -2.730326 -6.969927 -1.360756 11.063499 -2.966963 0.000000 -0.000000 0.000000 -0.601382 -1.953630 -6.550992 -1.608046 2.124349 0.502506 4.421969 -7.081152 -3.776459 0.000000 -0.000000 0.000000 -0.177435 0.672451 -1.815736 3.230147 -2.979827 0.420143 -0.267158 1.560118 -5.135945 0.230781 -9.275655 2.344565 6.158065 -10.832901 -9.658713 -21.539126 5.699034 -6.034199 -61.750658 -2.579812 22.810102 8.698216 -12.996825 8.373256 -10.652428 -7.110813 10.902354 22.677570 0.197762 -3.390645 54.708631 1.932958 17.634459 -2.990599 12.492769 6.486318 7.429513 3.409751 4.681005 
0.544160 0.230417 0.990000 88.589448 3.952745 95.272977 6.508178 4.050120 -2.847108 3.547336 -2.728964 -6.993699 -1.356158 11.095938 -3.024165 0.000000 -0.000000 0.000000 -0.550499 -1.976291 -6.419813 -1.628662 2.071483 0.426503 4.402407 -6.973426 -3.817071 0.000000 -0.000000 0.000000 -0.150486 0.597455 -1.861223 3.291243 -3.151271 0.401868 -0.112871 1.114183 -5.234921 0.061255 -8.730744 2.682295 5.822917 -10.236674 -9.303371 -21.684267 6.107541 -6.148585 -61.772624 -2.366488 22.753319 8.788273 -12.810392 8.404964 -10.381660 -7.139714 10.621317 22.545983 0.712260 -2.785278 54.587275 2.528305 17.911466 -2.854680 12.037215 6.060856 7.108808 3.514286 4.535126 
0.544311 0.230197 0.989868 88.582972 3.973232 95.251206 6.539348 4.066710 -2.822985 3.562492 -2.743470 -6.986913 -1.355360 11.076714 -3.026551 0.000000 -0.000000 0.000000 -0.503201 -2.004355 -6.397758 -1.633380 2.078038 0.427755 4.390378 -6.926556 -3.821803 0.000000 -0.000000 0.000000 -0.108971 0.652741 -1.792734 3.304549 -3.141475 0.311810 -0.082492 1.060848 -5.321286 -0.025627 -8.479293 2.728093 5.719697 -9.981183 -9.023816 -21.722661 6.066091 -6.146694 -61.776648 -2.358461 22.732542 8.785215 -12.606900 8.338406 -10.337802 -7.108328 10.539962 22.530628 0.767394 -2.627205 54.450222 2.598772 17.881288 -2.844859 11.989347 5.949929 7.062267 3.553223 4.565207 
0.544339 0.229937 0.989872 88.559391 3.995993 95.234107 6.572342 4.060147 -2.823738 3.571345 -2.694395 -6.937220 -1.357846 11.065425 -3.020092 0.000000 -0.000000 0.000000 -0.464643 -2.035663 -6.396029 -1.616241 2.091921 0.453437 4.385964 -6.909081 -3.847290 0.000000 -0.000000 0.000000 -0.061404 0.699694 -1.699369 3.298737 -3.109633 0.135588 -0.058186 1.043990 -5.265469 0.009765 -8.278965 2.633448 5.644992 -9.761158 -8.838589 -21.737939 6.024083 -6.131992 -61.794596 -2.371472 22.703089 8.823508 -12.611791 8.354671 -10.416387 -7.096746 10.423147 22.524961 0.790808 -2.589193 54.332123 2.629611 17.910418 -2.873441 11.935921 6.009808 7.122397 3.490309 4.579830 
0.544376 0.229717 0.989901 88.546832 4.015182 95.200413 6.608777 4.084641 -2.800836 3.564793 -2.677937 -6.912194 -1.364164 11.050500 -3.020335 0.000000 -0.000000 0.000000 -0.438591 -2.060469 -6.362079 -1.597575 2.102128 0.459049 4.397124 -6.878889 -3.827913 0.000000 -0.000000 0.000000 -0.081542 0.709732 -1.679148 3.351039 -3.090480 0.055447 0.031970 1.026242 -5.134875 0.073922 -8.171079 2.535685 5.563298 -9.639459 -8.892964 -21.710840 5.971627 -6.081571 -61.810968 -2.355888 22.677290 8.660912 -12.935337 8.423753 -10.265042 -6.995497 10.201542 22.496818 0.828993 -2.572903 54.189603 2.691722 17.890448 -2.974128 11.964042 5.959215 7.138837 3.417978 4.435288 
0.544481 0.229434 0.989889 88.523015 4.017593 95.205082 6.649872 4.109267 -2.813058 3.517165 -2.640038 -6.873776 -1.374636 11.022645 -3.041532 0.000000 -0.000000 0.000000 -0.437101 -2.041941 -6.336671 -1.568175 2.072614 0.398350 4.402529 -6.867584 -3.836473 0.000000 -0.000000 0.000000 -0.087660 0.731042 -1.673856 3.353619 -3.063372 -0.026945 0.053732 1.004971 -5.077043 0.165609 -8.045478 2.706672 5.666557 -9.591828 -9.068458 -21.641246 5.944806 -6.100476 -61.988530 -2.391515 22.690641 8.760816 -12.878335 8.461766 -10.275959 -7.047994 10.262765 22.475198 0.819777 -2.598700 54.142693 2.722673 17.867267 -3.008022 11.914387 6.025129 7.158298 3.416402 4.454135 
0.544481 0.229298 0.989901 88.494068 4.013922 95.178488 6.640512 4.070153 -2.742475 3.561732 -2.679030 -6.932794 -1.331362 11.112957 -3.053299 0.000000 -0.000000 0.000000 -0.431009 -1.975332 -6.261716 -1.555338 2.115521 0.313504 4.397124 -6.913359 -3.877080 0.000000 -0.000000 0.000000 -0.069484 0.742857 -1.546920 3.279174 -3.023651 -0.045825 0.090363 1.111276 -5.274344 0.161811 -8.145817 2.930623 5.923623 -9.456632 -8.921762 -21.606753 5.657162 -5.896229 -62.055953 -2.415091 22.735183 8.876236 -12.856645 8.320394 -10.197700 -7.287113 10.200637 22.248399 1.466443 -2.175907 54.331566 2.463092 18.040616 -3.100396 11.745405 5.251580 6.715521 3.746679 3.867119 
0.544458 0.229136 0.989779 88.496592 3.993503 95.211509 6.649887 4.079275 -2.800886 3.517344 -2.598530 -6.888730 -1.352109 11.012492 -3.063942 0.000000 -0.000000 0.000000 -0.446558 -2.029661 -6.307799 -1.542739 2.118098 0.334655 4.370762 -6.835587 -3.880906 0.000000 -0.000000 0.000000 -0.088135 0.753073 -1.526760 3.358479 -3.016169 -0.154630 0.101806 0.992350 -5.243126 0.234934 -8.077660 2.943958 5.718853 -9.539437 -8.712245 -21.649151 5.795621 -5.953040 -62.056846 -2.452966 22.719527 8.789549 -12.986892 8.515649 -10.279431 -7.289189 10.203837 22.394915 0.871361 -2.516892 54.116137 2.662729 17.873434 -3.058131 11.921165 5.883369 7.079639 3.532260 4.274129 
0.544434 0.229002 0.989738 88.480148 4.000719 95.271395 6.663221 4.059865 -2.878648 3.525084 -2.591241 -6.852207 -1.342596 11.011501 -3.075257 0.000000 -0.000000 0.000000 -0.441485 -2.026840 -6.374488 -1.518367 2.174732 0.339870 4.382449 -6.831939 -3.903224 0.000000 -0.000000 0.000000 -0.068539 0.756920 -1.530107 3.379786 -3.006420 -0.299427 0.123599 0.990333 -5.218936 0.267695 -8.048061 2.945649 5.661635 -9.503947 -8.504549 -21.626670 5.804567 -5.938830 -62.135017 -2.474200 22.774766 8.775839 -12.973412 8.646122 -10.222870 -7.258121 10.156495 22.345648 0.765853 -2.529268 54.104357 2.718888 17.894329 -3.054431 11.907737 5.966774 7.072185 3.490489 4.270908 
0.544433 0.228979 0.989741 88.387213 3.994164 95.272667 6.669737 4.090972 -2.847976 3.490074 -2.569098 -6.883895 -1.344311 11.045778 -3.077326 0.000000 -0.000000 0.000000 -0.471830 -2.000150 -6.373062 -1.490233 2.230843 0.286733 4.422339 -6.822185 -3.871266 0.000000 -0.000000 0.000000 -0.044248 0.747559 -1.510268 3.403793 -2.956636 -0.361356 0.151909 1.032399 -5.172042 0.250221 -8.068409 2.931850 5.571657 -9.490448 -8.407548 -21.630275 5.767179 -5.905741 -62.053243 -2.457551 22.844957 8.533015 -13.249511 8.827911 -10.123776 -7.116894 10.096975 22.334424 0.766259 -2.510603 54.018045 2.776116 17.889457 -3.027766 11.922543 5.948183 7.072420 3.410514 4.219336 
0.544359 0.229122 0.989708 88.278622 3.952577 95.308979 6.638047 4.156056 -2.865102 3.425004 -2.535906 -6.888197 -1.338067 11.049474 -3.085697 0.000000 -0.000000 0.000000 -0.518743 -1.982273 -6.433180 -1.492436 2.284631 0.280105 4.421445 -6.778105 -3.866754 0.000000 -0.000000 0.000000 -0.005994 0.774579 -1.480740 3.404126 -2.911418 -0.460951 0.150616 1.059388 -5.132874 0.185474 -8.089456 3.001326 5.537145 -9.513243 -8.383664 -21.681497 5.690097 -5.907821 -62.141815 -2.545917 22.890091 8.595406 -13.075505 8.812308 -10.145033 -7.112282 10.099260 22.333880 0.778354 -2.539520 54.001272 2.794951 17.902933 -3.077566 11.883052 5.942641 7.077312 3.404567 4.220195 
0.544281 0.229255 0.989738 88.164276 3.904857 95.375264 6.558405 4.130108 -2.935180 3.439197 -2.469702 -6.853108 -1.320007 11.072051 -3.090439 0.000000 -0.000000 0.000000 -0.565301 -1.950220 -6.541980 -1.524526 2.280692 0.291406 4.416390 -6.717313 -3.823120 0.000000 -0.000000 0.000000 0.004251 0.805596 -1.550452 3.421719 -2.902560 -0.442812 0.155482 1.055161 -5.128510 0.136281 -7.934767 3.013369 5.535725 -9.467932 -8.320689 -21.665367 5.657194 -5.856363 -62.234845 -2.568332 22.862176 8.640939 -13.156982 8.740099 -10.271284 -7.286836 10.056292 22.358396 0.821972 -2.451809 53.935683 2.880802 17.873020 -3.105851 11.916757 5.976522 7.123294 3.455087 4.265580 
0.544240 0.229404 0.989748 88.114469 3.885590 95.368935 6.526642 4.124290 -2.921463 3.434865 -2.441430 -6.846797 -1.296441 11.091620 -3.109961 0.000000 -0.000000 0.000000 -0.579724 -1.906582 -6.549615 -1.564046 2.292115 0.297375 4.442055 -6.694323 -3.836946 0.000000 -0.000000 0.000000 0.031216 0.799515 -1.477191 3.447700 -2.897357 -0.467457 0.174643 1.060722 -5.167276 0.117900 -7.921900 3.142298 5.536317 -9.395160 -8.300194 -21.671573 5.649633 -5.851379 -62.264710 -2.537616 22.890095 8.645430 -13.220905 8.780929 -10.282351 -7.315683 10.133960 22.322762 0.826726 -2.428794 53.927352 2.894719 17.875556 -3.109258 11.966435 5.961069 7.139927 3.511411 4.268641 
0.544492 0.229703 0.989770 88.066670 3.894129 95.357296 6.500816 4.152966 -2.863389 3.463564 -2.445536 -6.888059 -1.286353 11.101221 -3.119995 0.000000 -0.000000 0.000000 -0.581282 -1.934141 -6.570458 -1.576495 2.291722 0.364483 4.501928 -6.637303 -3.855068 0.000000 -0.000000 0.000000 0.097275 0.777082 -1.437763 3.492211 -2.917284 -0.518586 0.220236 1.068076 -5.156959 0.124737 -7.924874 3.365440 5.553481 -9.283642 -8.389558 -21.546471 5.637506 -5.788054 -62.300201 -2.454502 22.914636 8.335734 -13.496749 8.908987 -10.137208 -7.205804 10.047128 22.176914 0.827360 -2.388493 54.014427 2.905882 17.851569 -3.084901 11.995308 5.912115 7.086683 3.528660 4.180785 
